<svg width="168" height="83" viewBox="0 0 168 83" fill="none" xmlns="http://www.w3.org/2000/svg">
<g clip-path="url(#clip0)">
<path d="M20.592 16.2571C20.0097 17.6544 19.1411 18.9144 18.0421 19.956C16.9001 21.0252 15.5609 21.8623 14.0989 22.4205C12.4989 23.0354 10.7966 23.3414 9.08238 23.3223H0V-0.000563883H9.10429C10.8165 -0.023816 12.5179 0.273117 14.1209 0.874917C15.5835 1.42363 16.9234 2.25516 18.064 3.32189C19.1509 4.36242 20.0115 5.61563 20.592 7.00329C21.1993 8.45437 21.5048 10.0137 21.4902 11.5864V11.6521C21.5056 13.232 21.2001 14.7986 20.592 16.2571V16.2571ZM16.1231 11.6608C16.1335 10.6924 15.958 9.73104 15.6061 8.82866C15.2823 7.99653 14.7951 7.2375 14.1734 6.59619C13.5423 5.96364 12.7856 5.47008 11.9521 5.14727C11.0389 4.79339 10.0662 4.61804 9.08677 4.63073H5.13486V18.691H9.10429C10.0821 18.7028 11.0536 18.5336 11.9696 18.1919C12.8046 17.8803 13.5624 17.392 14.191 16.7605C14.806 16.1306 15.2925 15.3873 15.6236 14.5718C15.9798 13.6707 16.1555 12.7084 16.1406 11.7396L16.1231 11.6608Z" fill="#2FB2CA"/>
<path d="M36.1147 10.427C34.4235 10.427 33.0945 10.9377 32.1277 11.9591C31.1609 12.9805 30.6746 14.5695 30.6688 16.7261V23.3228H25.6084V5.46303H30.6688V9.06126C31.1193 7.9266 31.8414 6.9196 32.7718 6.1284C33.648 5.39883 34.8485 5.06615 36.3732 5.13035V10.427H36.1147Z" fill="#2FB2CA"/>
<path d="M39.4316 23.3228V17.9911H44.7987V23.3228H39.4316Z" fill="#2FB2CA"/>
<path d="M32.4608 63.3761C35.657 62.232 38.4619 60.2038 40.5486 57.5279C42.5932 54.8752 43.6242 51.4389 43.6418 47.2191V47.0703C43.6418 41.6598 41.9141 37.4415 38.4587 34.4152C35.0034 31.389 30.1723 29.8744 23.9655 29.8715H0.122559V81.9889H4.31544V80.7063C4.31453 79.8116 4.37601 78.9179 4.49945 78.0317C4.60623 77.224 4.76575 76.4241 4.97701 75.6372C5.79481 72.5312 7.38302 69.6813 9.59488 67.3508C11.832 64.991 14.673 63.2879 17.8098 62.4262V61.936C17.7677 61.2233 17.9668 60.5171 18.375 59.9311C18.579 59.685 18.8389 59.4911 19.1331 59.3655C19.4272 59.2399 19.7471 59.1862 20.0661 59.2088H20.1099C20.4148 59.1968 20.7186 59.2521 20.9996 59.3709C21.2805 59.4897 21.5318 59.6691 21.7354 59.8961C22.1655 60.4431 22.3819 61.1276 22.3444 61.8222H23.9917C24.8239 61.8216 25.648 61.9849 26.4169 62.3028C27.1858 62.6207 27.8844 63.0869 28.4728 63.6748C29.0612 64.2627 29.5278 64.9607 29.846 65.7289C30.1642 66.4971 30.3277 67.3205 30.3271 68.1519V68.4189H22.3444V68.4627L31.7904 81.9889H45.2059L32.4608 63.3761ZM32.0226 47.8145C32.0642 48.82 31.8818 49.8223 31.4886 50.7488C31.0953 51.6754 30.5011 52.5032 29.7487 53.1724C28.2387 54.5177 26.0656 55.1889 23.2294 55.186H11.5971V40.2196H22.9884C25.8217 40.2196 28.0327 40.8398 29.6217 42.08C31.2106 43.3203 32.0051 45.1822 32.0051 47.6656L32.0226 47.8145Z" fill="#2FB2CA"/>
<path d="M75.9231 82.1114V77.8127C74.5334 79.3504 72.8522 80.5972 70.9767 81.481C69.0431 82.3944 66.6932 82.8511 63.9272 82.8511C62.1295 82.8633 60.3405 82.602 58.6215 82.0763C57.0332 81.5929 55.5572 80.7983 54.2796 79.7388C53.0381 78.6929 52.0382 77.3906 51.3486 75.9217C50.6052 74.2812 50.2385 72.4955 50.2751 70.6951V70.5462C50.2249 68.6014 50.6316 66.6719 51.4625 64.9125C52.2296 63.3537 53.3612 62.0024 54.7616 60.9729C56.2763 59.8925 57.9811 59.1069 59.7869 58.6572C61.9085 58.1186 64.091 57.8567 66.2799 57.878C68.0585 57.8536 69.8352 58.0002 71.5857 58.3158C73.0818 58.6096 74.556 59.0059 75.9976 59.5021V58.8323C75.9976 56.4656 75.2805 54.6621 73.8464 53.4218C72.4123 52.1816 70.2874 51.5644 67.4717 51.5702C65.5395 51.5449 63.6105 51.7313 61.719 52.1261C59.9402 52.5347 58.1922 53.0671 56.4878 53.7195L53.6706 45.1223C55.8788 44.1698 58.1619 43.4012 60.4967 42.8241C63.319 42.1859 66.2083 41.8919 69.1015 41.9487C75.282 41.9487 79.783 43.4559 82.6046 46.4705C85.4261 49.4851 86.8369 53.6859 86.8369 59.0731V82.1289L75.9231 82.1114ZM76.1466 66.0988C75.0842 65.6306 73.9775 65.2698 72.8431 65.022C71.5634 64.7454 70.2574 64.6089 68.9481 64.6149C66.5238 64.6149 64.6253 65.0847 63.2525 66.0244C62.582 66.4661 62.0379 67.0745 61.6738 67.7897C61.3097 68.505 61.1381 69.3026 61.1758 70.1041V70.2486C61.1436 70.9367 61.2829 71.6221 61.5811 72.2432C61.8793 72.8643 62.3272 73.4018 62.8845 73.8074C64.0177 74.6479 65.5015 75.0681 67.3358 75.0681C70.0055 75.0681 72.145 74.4261 73.7544 73.142C74.5253 72.5506 75.1454 71.7855 75.5641 70.9092C75.9829 70.0329 76.1885 69.0701 76.1641 68.0993L76.1466 66.0988Z" fill="#2FB2CA"/>
<path d="M114.877 82.1464C113.258 82.5906 111.583 82.8028 109.904 82.7767C108.317 82.7947 106.734 82.6078 105.194 82.2208C103.837 81.8811 102.587 81.2069 101.558 80.2597C100.489 79.2382 99.676 77.9802 99.1833 76.5871C98.5595 74.7385 98.2702 72.7938 98.3289 70.8439V52.0211H93.584V42.3908H98.3289V32.222H109.606V42.3776H118.956V52.0079H109.606V68.9879C109.606 71.556 110.818 72.84 113.243 72.84C115.187 72.8497 117.102 72.3646 118.807 71.4305V80.4742C117.571 81.1923 116.251 81.754 114.877 82.1464Z" fill="#2FB2CA"/>
<path d="M166.366 70.3625C165.303 72.8268 163.765 75.058 161.84 76.9286C159.869 78.8329 157.552 80.3425 155.014 81.376C152.282 82.483 149.357 83.0366 146.409 83.0044C143.488 83.0351 140.589 82.4969 137.874 81.4198C135.348 80.4166 133.043 78.9296 131.088 77.0424C129.185 75.1781 127.667 72.9592 126.619 70.5113C125.523 67.9712 124.968 65.2314 124.989 62.4656V62.3168C124.969 59.5539 125.524 56.8171 126.619 54.2799C127.684 51.8173 129.222 49.5867 131.145 47.7137C133.116 45.811 135.433 44.3016 137.971 43.2663C143.473 41.1105 149.586 41.098 155.097 43.2313C157.625 44.2328 159.932 45.72 161.888 47.6087C163.796 49.4686 165.32 51.6846 166.374 54.131C167.468 56.6653 168.022 59.3994 168 62.1592V62.3036C168.023 65.0743 167.467 67.8193 166.366 70.3625V70.3625ZM156.871 62.3168C156.88 60.8882 156.628 59.47 156.127 58.132C155.15 55.5181 153.176 53.3977 150.637 52.2356C149.308 51.6392 147.865 51.3404 146.409 51.3601C144.916 51.3386 143.435 51.6371 142.067 52.2356C140.841 52.78 139.743 53.5747 138.842 54.5688C137.941 55.5729 137.247 56.7452 136.801 58.0182C136.323 59.3629 136.085 60.7806 136.095 62.2073V62.3518C136.085 63.7816 136.336 65.2012 136.836 66.541C137.812 69.1428 139.77 71.2583 142.291 72.433C143.63 73.0388 145.088 73.3379 146.558 73.3084C148.05 73.33 149.529 73.0315 150.895 72.433C152.124 71.8902 153.224 71.0952 154.124 70.0998C155.023 69.0934 155.716 67.9218 156.166 66.6504C156.642 65.3053 156.88 63.8879 156.871 62.4612V62.3168Z" fill="#2FB2CA"/>
<path d="M25.6349 66.6285C26.3197 66.6285 26.8748 66.0739 26.8748 65.3897C26.8748 64.7055 26.3197 64.1509 25.6349 64.1509C24.9501 64.1509 24.395 64.7055 24.395 65.3897C24.395 66.0739 24.9501 66.6285 25.6349 66.6285Z" fill="#2FB2CA"/>
</g>
<defs>
<clipPath id="clip0">
<rect width="168" height="83" fill="white"/>
</clipPath>
</defs>
</svg>
