<svg width="168" height="83" viewBox="0 0 168 83" fill="none" xmlns="http://www.w3.org/2000/svg">
<g clip-path="url(#clip0)">
<path d="M20.592 16.257C20.0097 17.6543 19.1411 18.9143 18.0421 19.9559C16.9001 21.0251 15.5609 21.8622 14.0989 22.4204C12.4989 23.0353 10.7966 23.3413 9.08238 23.3221H0V-0.000685953H9.10429C10.8165 -0.023938 12.5179 0.272995 14.1209 0.874795C15.5835 1.42351 16.9234 2.25503 18.064 3.32176C19.1509 4.3623 20.0115 5.61551 20.592 7.00316C21.1993 8.45424 21.5048 10.0136 21.4902 11.5863V11.652C21.5056 13.2319 21.2001 14.7985 20.592 16.257ZM16.1231 11.6607C16.1335 10.6923 15.958 9.73092 15.6061 8.82854C15.2823 7.99641 14.7951 7.23737 14.1734 6.59606C13.5423 5.96351 12.7856 5.46996 11.9521 5.14714C11.0389 4.79327 10.0662 4.61792 9.08677 4.63061H5.13486V18.6908H9.10429C10.0821 18.7027 11.0536 18.5335 11.9696 18.1918C12.8046 17.8801 13.5624 17.3919 14.191 16.7604C14.806 16.1305 15.2925 15.3871 15.6236 14.5717C15.9798 13.6705 16.1555 12.7083 16.1406 11.7395L16.1231 11.6607Z" fill="white"/>
<path d="M36.1147 10.427C34.4235 10.427 33.0945 10.9377 32.1277 11.9591C31.1609 12.9805 30.6746 14.5695 30.6688 16.7261V23.3228H25.6084V5.46303H30.6688V9.06126C31.1193 7.9266 31.8414 6.9196 32.7718 6.1284C33.648 5.39883 34.8485 5.06615 36.3732 5.13035V10.427H36.1147Z" fill="white"/>
<path d="M39.4316 23.3229V17.9912H44.7987V23.3229H39.4316Z" fill="white"/>
<path d="M32.4608 63.3758C35.657 62.2317 38.4619 60.2034 40.5486 57.5275C42.5932 54.8748 43.6242 51.4386 43.6418 47.2188V47.0699C43.6418 41.6595 41.9141 37.4411 38.4587 34.4148C35.0034 31.3886 30.1723 29.874 23.9655 29.8711H0.122559V81.9885H4.31544V80.7059C4.31453 79.8112 4.37601 78.9175 4.49945 78.0313C4.60623 77.2236 4.76575 76.4238 4.97701 75.6369C5.79481 72.5309 7.38302 69.6809 9.59488 67.3505C11.832 64.9906 14.673 63.2876 17.8098 62.4259V61.9356C17.7677 61.2229 17.9668 60.5168 18.375 59.9307C18.579 59.6847 18.8389 59.4907 19.1331 59.3651C19.4272 59.2395 19.7471 59.1858 20.0661 59.2085H20.1099C20.4148 59.1964 20.7186 59.2518 20.9996 59.3706C21.2805 59.4894 21.5318 59.6687 21.7354 59.8957C22.1655 60.4427 22.3819 61.1272 22.3444 61.8218H23.9917C24.8239 61.8212 25.648 61.9845 26.4169 62.3024C27.1858 62.6203 27.8844 63.0866 28.4728 63.6744C29.0612 64.2623 29.5278 64.9603 29.846 65.7286C30.1642 66.4968 30.3277 67.3201 30.3271 68.1515V68.4185H22.3444V68.4623L31.7904 81.9885H45.2059L32.4608 63.3758ZM32.0226 47.8141C32.0642 48.8197 31.8818 49.8219 31.4886 50.7485C31.0953 51.675 30.5011 52.5028 29.7487 53.172C28.2387 54.5174 26.0656 55.1886 23.2294 55.1856H11.5971V40.2193H22.9884C25.8217 40.2193 28.0327 40.8394 29.6217 42.0797C31.2106 43.3199 32.0051 45.1818 32.0051 47.6653L32.0226 47.8141Z" fill="white"/>
<path d="M75.9231 82.1115V77.8129C74.5334 79.3505 72.8521 80.5974 70.9767 81.4811C69.0431 82.3946 66.6932 82.8513 63.9272 82.8513C62.1295 82.8634 60.3405 82.6022 58.6215 82.0765C57.0332 81.593 55.5572 80.7984 54.2796 79.7389C53.0381 78.693 52.0382 77.3908 51.3486 75.9218C50.6052 74.2814 50.2385 72.4956 50.2751 70.6952V70.5464C50.2249 68.6016 50.6316 66.6721 51.4625 64.9126C52.2296 63.3538 53.3612 62.0025 54.7616 60.973C56.2763 59.8926 57.9811 59.1071 59.7869 58.6573C61.9085 58.1187 64.091 57.8568 66.2799 57.8782C68.0585 57.8538 69.8352 58.0004 71.5857 58.3159C73.0818 58.6097 74.556 59.006 75.9976 59.5022V58.8324C75.9976 56.4657 75.2805 54.6622 73.8464 53.422C72.4123 52.1817 70.2873 51.5645 67.4717 51.5703C65.5395 51.545 63.6105 51.7314 61.719 52.1262C59.9402 52.5348 58.1922 53.0672 56.4878 53.7196L53.6706 45.1224C55.8788 44.1699 58.1619 43.4013 60.4967 42.8243C63.319 42.186 66.2083 41.8921 69.1015 41.9488C75.282 41.9488 79.783 43.4561 82.6046 46.4706C85.4261 49.4852 86.8369 53.6861 86.8369 59.0732V82.129L75.9231 82.1115ZM76.1466 66.0989C75.0842 65.6307 73.9775 65.2699 72.8431 65.0221C71.5634 64.7456 70.2574 64.6091 68.9481 64.615C66.5238 64.615 64.6253 65.0848 63.2525 66.0245C62.582 66.4662 62.0379 67.0746 61.6738 67.7898C61.3097 68.5051 61.1381 69.3027 61.1758 70.1042V70.2487C61.1436 70.9368 61.2829 71.6222 61.5811 72.2433C61.8793 72.8644 62.3272 73.4019 62.8845 73.8075C64.0177 74.648 65.5015 75.0682 67.3358 75.0682C70.0055 75.0682 72.145 74.4262 73.7544 73.1422C74.5253 72.5507 75.1454 71.7857 75.5641 70.9093C75.9829 70.033 76.1885 69.0702 76.1641 68.0994L76.1466 66.0989Z" fill="white"/>
<path d="M114.877 82.1465C113.258 82.5907 111.583 82.8029 109.904 82.7768C108.317 82.7948 106.734 82.6079 105.194 82.2209C103.837 81.8812 102.587 81.207 101.558 80.2598C100.489 79.2383 99.676 77.9803 99.1833 76.5872C98.5595 74.7386 98.2702 72.7939 98.3289 70.844V52.0212H93.584V42.3909H98.3289V32.2222H109.606V42.3778H118.956V52.008H109.606V68.988C109.606 71.5561 110.818 72.8401 113.243 72.8401C115.187 72.8498 117.102 72.3648 118.807 71.4306V80.4743C117.571 81.1925 116.251 81.7542 114.877 82.1465Z" fill="white"/>
<path d="M166.366 70.3623C165.303 72.8266 163.765 75.0578 161.84 76.9284C159.869 78.8327 157.552 80.3424 155.014 81.3758C152.282 82.4829 149.357 83.0364 146.409 83.0042C143.488 83.0349 140.589 82.4967 137.874 81.4196C135.348 80.4164 133.043 78.9294 131.088 77.0422C129.185 75.1779 127.667 72.959 126.619 70.5111C125.523 67.9711 124.968 65.2312 124.989 62.4654V62.3166C124.969 59.5537 125.524 56.8169 126.619 54.2797C127.684 51.8171 129.222 49.5865 131.145 47.7136C133.116 45.8109 135.433 44.3014 137.971 43.2661C143.473 41.1103 149.586 41.0978 155.097 43.2311C157.625 44.2327 159.932 45.7199 161.888 47.6085C163.796 49.4684 165.32 51.6844 166.374 54.1308C167.468 56.6651 168.022 59.3992 168 62.159V62.3035C168.023 65.0742 167.467 67.8192 166.366 70.3623ZM156.871 62.3166C156.88 60.888 156.628 59.4699 156.127 58.1318C155.15 55.5179 153.176 53.3975 150.637 52.2354C149.308 51.639 147.865 51.3402 146.409 51.3599C144.916 51.3384 143.435 51.637 142.067 52.2354C140.841 52.7798 139.743 53.5745 138.842 54.5686C137.941 55.5727 137.247 56.745 136.801 58.018C136.323 59.3627 136.085 60.7804 136.095 62.2072V62.3516C136.085 63.7814 136.336 65.201 136.836 66.5408C137.812 69.1426 139.77 71.2581 142.291 72.4328C143.63 73.0386 145.088 73.3377 146.558 73.3083C148.05 73.3298 149.529 73.0313 150.895 72.4328C152.124 71.89 153.224 71.095 154.124 70.0996C155.023 69.0933 155.716 67.9216 156.166 66.6502C156.642 65.3051 156.88 63.8877 156.871 62.461V62.3166Z" fill="white"/>
<path d="M25.6349 66.6285C26.3197 66.6285 26.8748 66.0739 26.8748 65.3897C26.8748 64.7055 26.3197 64.1509 25.6349 64.1509C24.9501 64.1509 24.395 64.7055 24.395 65.3897C24.395 66.0739 24.9501 66.6285 25.6349 66.6285Z" fill="white"/>
</g>
<defs>
<clipPath id="clip0">
<rect width="168" height="83" fill="white"/>
</clipPath>
</defs>
</svg>
